ISO-10303-21;
HEADER;
FILE_DESCRIPTION (( 'STEP AP214' ),
    '1' );
FILE_NAME ('Repeat Brushed Dual ESC.STEP',
    '2025-02-13T00:53:28',
    ( '' ),
    ( '' ),
    'SwSTEP 2.0',
    'SolidWorks 2024',
    '' );
FILE_SCHEMA (( 'AUTOMOTIVE_DESIGN' ));
ENDSEC;

DATA;
#1 = STYLED_ITEM ( 'NONE', ( #138 ), #119 ) ;
#2 = EDGE_CURVE ( 'NONE', #145, #106, #128, .T. ) ;
#3 = PRODUCT_DEFINITION_CONTEXT ( 'detailed design', #168, 'design' ) ;
#4 = VECTOR ( 'NONE', #28, 1000.000000000000000 ) ;
#5 = DIRECTION ( 'NONE',  ( -1.000000000000000000, -1.927470528863119049E-16, 0.000000000000000000 ) ) ;
#6 = ADVANCED_FACE ( 'NONE', ( #110 ), #51, .F. ) ;
#7 = CARTESIAN_POINT ( 'NONE',  ( 11.99999999999999645, 9.000000000000001776, 5.000000000000000000 ) ) ;
#8 = LINE ( 'NONE', #34, #142 ) ;
#9 = DIRECTION ( 'NONE',  ( -1.000000000000000000, 0.000000000000000000, -0.000000000000000000 ) ) ;
#10 = VECTOR ( 'NONE', #35, 1000.000000000000000 ) ;
#11 = ORIENTED_EDGE ( 'NONE', *, *, #89, .T. ) ;
#12 = CARTESIAN_POINT ( 'NONE',  ( 12.00000000000000000, -8.999999999999998224, 0.000000000000000000 ) ) ;
#13 = VERTEX_POINT ( 'NONE', #17 ) ;
#14 = ORIENTED_EDGE ( 'NONE', *, *, #149, .T. ) ;
#15 = DIRECTION ( 'NONE',  ( 9.637352644315595243E-17, -1.000000000000000000, 0.000000000000000000 ) ) ;
#16 = PRESENTATION_LAYER_ASSIGNMENT (  '', '', ( #1 ) ) ;
#17 = CARTESIAN_POINT ( 'NONE',  ( 12.00000000000000000, -8.999999999999998224, 5.000000000000000000 ) ) ;
#18 = ADVANCED_FACE ( 'NONE', ( #117 ), #56, .F. ) ;
#19 = PLANE ( 'NONE',  #174 ) ;
#20 = FACE_OUTER_BOUND ( 'NONE', #47, .T. ) ;
#21 = CARTESIAN_POINT ( 'NONE',  ( 0.000000000000000000, 0.000000000000000000, 5.000000000000000000 ) ) ;
#22 = VERTEX_POINT ( 'NONE', #135 ) ;
#23 = ORIENTED_EDGE ( 'NONE', *, *, #75, .F. ) ;
#24 = DIRECTION ( 'NONE',  ( -0.000000000000000000, -0.000000000000000000, -1.000000000000000000 ) ) ;
#25 = PRODUCT_DEFINITION_SHAPE ( 'NONE', 'NONE',  #146 ) ;
#26 = EDGE_CURVE ( 'NONE', #22, #106, #116, .T. ) ;
#27 = ORIENTED_EDGE ( 'NONE', *, *, #175, .T. ) ;
#28 = DIRECTION ( 'NONE',  ( 9.637352644315595243E-17, -1.000000000000000000, 0.000000000000000000 ) ) ;
#29 = FACE_OUTER_BOUND ( 'NONE', #81, .T. ) ;
#30 = CARTESIAN_POINT ( 'NONE',  ( 11.99999999999999645, 9.000000000000001776, 0.000000000000000000 ) ) ;
#31 = VECTOR ( 'NONE', #120, 1000.000000000000000 ) ;
#32 = EDGE_CURVE ( 'NONE', #170, #145, #73, .T. ) ;
#33 = CARTESIAN_POINT ( 'NONE',  ( 12.00000000000000000, -8.999999999999998224, 5.000000000000000000 ) ) ;
#34 = CARTESIAN_POINT ( 'NONE',  ( 11.99999999999999645, 9.000000000000001776, 5.000000000000000000 ) ) ;
#35 = DIRECTION ( 'NONE',  ( 1.000000000000000000, 1.445602896647339163E-16, -0.000000000000000000 ) ) ;
#36 = VECTOR ( 'NONE', #42, 1000.000000000000000 ) ;
#37 = ORIENTED_EDGE ( 'NONE', *, *, #131, .T. ) ;
#38 = DIRECTION ( 'NONE',  ( -0.000000000000000000, -0.000000000000000000, -1.000000000000000000 ) ) ;
#39 = ORIENTED_EDGE ( 'NONE', *, *, #175, .F. ) ;
#40 = DIRECTION ( 'NONE',  ( 0.000000000000000000, 0.000000000000000000, 1.000000000000000000 ) ) ;
#41 = VERTEX_POINT ( 'NONE', #54 ) ;
#42 = DIRECTION ( 'NONE',  ( -1.927470528863119049E-16, 1.000000000000000000, -0.000000000000000000 ) ) ;
#43 = CARTESIAN_POINT ( 'NONE',  ( 0.000000000000000000, 0.000000000000000000, 0.000000000000000000 ) ) ;
#44 = ADVANCED_FACE ( 'NONE', ( #29 ), #176, .T. ) ;
#45 = DIRECTION ( 'NONE',  ( -1.000000000000000000, 0.000000000000000000, -0.000000000000000000 ) ) ;
#46 = ORIENTED_EDGE ( 'NONE', *, *, #63, .F. ) ;
#47 = EDGE_LOOP ( 'NONE', ( #92, #62, #182, #37 ) ) ;
#48 = AXIS2_PLACEMENT_3D ( 'NONE', #33, #87, #61 ) ;
#49 = CARTESIAN_POINT ( 'NONE',  ( -12.00000000000000000, -9.000000000000001776, 5.000000000000000000 ) ) ;
#50 = ORIENTED_EDGE ( 'NONE', *, *, #163, .F. ) ;
#51 = PLANE ( 'NONE',  #90 ) ;
#52 = CARTESIAN_POINT ( 'NONE',  ( 0.000000000000000000, 0.000000000000000000, 0.000000000000000000 ) ) ;
#53 = PRODUCT_CONTEXT ( 'NONE', #104, 'mechanical' ) ;
#54 = CARTESIAN_POINT ( 'NONE',  ( 11.99999999999999645, 9.000000000000001776, 0.000000000000000000 ) ) ;
#55 = VECTOR ( 'NONE', #15, 1000.000000000000000 ) ;
#56 = PLANE ( 'NONE',  #172 ) ;
#57 = COLOUR_RGB ( '',0.7921568627450980005, 0.8196078431372548767, 0.9333333333333333481 ) ;
#58 = EDGE_CURVE ( 'NONE', #106, #181, #77, .T. ) ;
#59 =( GEOMETRIC_REPRESENTATION_CONTEXT ( 3 ) GLOBAL_UNCERTAINTY_ASSIGNED_CONTEXT ( ( #72 ) ) GLOBAL_UNIT_ASSIGNED_CONTEXT ( ( #158, #83, #148 ) ) REPRESENTATION_CONTEXT ( 'NONE', 'WORKASPACE' ) );
#60 = VECTOR ( 'NONE', #68, 1000.000000000000000 ) ;
#61 = DIRECTION ( 'NONE',  ( -1.000000000000000000, -1.445602896647339163E-16, 0.000000000000000000 ) ) ;
#62 = ORIENTED_EDGE ( 'NONE', *, *, #2, .F. ) ;
#63 = EDGE_CURVE ( 'NONE', #145, #13, #141, .T. ) ;
#64 = DIRECTION ( 'NONE',  ( -1.927470528863119049E-16, 1.000000000000000000, -0.000000000000000000 ) ) ;
#65 = LINE ( 'NONE', #93, #143 ) ;
#66 = CLOSED_SHELL ( 'NONE', ( #100, #112, #115, #18, #6, #44 ) ) ;
#67 = ORIENTED_EDGE ( 'NONE', *, *, #63, .T. ) ;
#68 = DIRECTION ( 'NONE',  ( -1.000000000000000000, -1.445602896647339163E-16, 0.000000000000000000 ) ) ;
#69 = ORIENTED_EDGE ( 'NONE', *, *, #75, .T. ) ;
#70 = APPLICATION_PROTOCOL_DEFINITION ( 'draft international standard', 'automotive_design', 1998, #104 ) ;
#71 = LINE ( 'NONE', #114, #80 ) ;
#72 = UNCERTAINTY_MEASURE_WITH_UNIT (LENGTH_MEASURE( 1.000000000000000082E-05 ), #158, 'distance_accuracy_value', 'NONE');
#73 = LINE ( 'NONE', #113, #4 ) ;
#74 = DIRECTION ( 'NONE',  ( 0.000000000000000000, 0.000000000000000000, -1.000000000000000000 ) ) ;
#75 = EDGE_CURVE ( 'NONE', #122, #170, #151, .T. ) ;
#76 = DIRECTION ( 'NONE',  ( 0.000000000000000000, 0.000000000000000000, -1.000000000000000000 ) ) ;
#77 = LINE ( 'NONE', #12, #10 ) ;
#78 = EDGE_LOOP ( 'NONE', ( #179, #67, #11, #69 ) ) ;
#79 = ORIENTED_EDGE ( 'NONE', *, *, #2, .T. ) ;
#80 = VECTOR ( 'NONE', #132, 1000.000000000000000 ) ;
#81 = EDGE_LOOP ( 'NONE', ( #130, #39, #50, #126 ) ) ;
#82 = CARTESIAN_POINT ( 'NONE',  ( 12.00000000000000000, -8.999999999999998224, 0.000000000000000000 ) ) ;
#83 =( NAMED_UNIT ( * ) PLANE_ANGLE_UNIT ( ) SI_UNIT ( $, .RADIAN. ) );
#84 = CARTESIAN_POINT ( 'NONE',  ( -12.00000000000000178, 8.999999999999998224, 0.000000000000000000 ) ) ;
#85 = AXIS2_PLACEMENT_3D ( 'NONE', #43, #74, #45 ) ;
#86 = VECTOR ( 'NONE', #38, 1000.000000000000000 ) ;
#87 = DIRECTION ( 'NONE',  ( -1.445602896647339163E-16, 1.000000000000000000, 0.000000000000000000 ) ) ;
#88 = SURFACE_STYLE_USAGE ( .BOTH. , #167 ) ;
#89 = EDGE_CURVE ( 'NONE', #13, #122, #8, .T. ) ;
#90 = AXIS2_PLACEMENT_3D ( 'NONE', #21, #76, #9 ) ;
#91 = SURFACE_STYLE_FILL_AREA ( #178 ) ;
#92 = ORIENTED_EDGE ( 'NONE', *, *, #26, .T. ) ;
#93 = CARTESIAN_POINT ( 'NONE',  ( -12.00000000000000178, 8.999999999999998224, 5.000000000000000000 ) ) ;
#94 = CARTESIAN_POINT ( 'NONE',  ( -12.00000000000000000, -9.000000000000001776, 0.000000000000000000 ) ) ;
#95 = EDGE_LOOP ( 'NONE', ( #155, #124, #46, #79 ) ) ;
#96 = LINE ( 'NONE', #101, #147 ) ;
#97 = EDGE_LOOP ( 'NONE', ( #99, #140, #185, #109 ) ) ;
#98 = CARTESIAN_POINT ( 'NONE',  ( 11.99999999999999645, 9.000000000000001776, 5.000000000000000000 ) ) ;
#99 = ORIENTED_EDGE ( 'NONE', *, *, #163, .T. ) ;
#100 = ADVANCED_FACE ( 'NONE', ( #20 ), #127, .F. ) ;
#101 = CARTESIAN_POINT ( 'NONE',  ( 12.00000000000000000, -8.999999999999998224, 5.000000000000000000 ) ) ;
#102 = PRODUCT_RELATED_PRODUCT_CATEGORY ( 'part', '', ( #186 ) ) ;
#103 = LINE ( 'NONE', #98, #86 ) ;
#104 = APPLICATION_CONTEXT ( 'automotive_design' ) ;
#105 = DIRECTION ( 'NONE',  ( 1.000000000000000000, 9.637352644315595243E-17, -0.000000000000000000 ) ) ;
#106 = VERTEX_POINT ( 'NONE', #94 ) ;
#107 =( NAMED_UNIT ( * ) SI_UNIT ( $, .STERADIAN. ) SOLID_ANGLE_UNIT ( ) );
#108 = AXIS2_PLACEMENT_3D ( 'NONE', #52, #40, #162 ) ;
#109 = ORIENTED_EDGE ( 'NONE', *, *, #177, .T. ) ;
#110 = FACE_OUTER_BOUND ( 'NONE', #78, .T. ) ;
#111 = UNCERTAINTY_MEASURE_WITH_UNIT (LENGTH_MEASURE( 1.000000000000000082E-05 ), #152, 'distance_accuracy_value', 'NONE');
#112 = ADVANCED_FACE ( 'NONE', ( #166 ), #121, .F. ) ;
#113 = CARTESIAN_POINT ( 'NONE',  ( -12.00000000000000178, 8.999999999999998224, 5.000000000000000000 ) ) ;
#114 = CARTESIAN_POINT ( 'NONE',  ( 11.99999999999999645, 9.000000000000001776, 0.000000000000000000 ) ) ;
#115 = ADVANCED_FACE ( 'NONE', ( #150 ), #19, .F. ) ;
#116 = LINE ( 'NONE', #84, #55 ) ;
#117 = FACE_OUTER_BOUND ( 'NONE', #153, .T. ) ;
#118 =( GEOMETRIC_REPRESENTATION_CONTEXT ( 3 ) GLOBAL_UNCERTAINTY_ASSIGNED_CONTEXT ( ( #111 ) ) GLOBAL_UNIT_ASSIGNED_CONTEXT ( ( #152, #180, #107 ) ) REPRESENTATION_CONTEXT ( 'NONE', 'WORKASPACE' ) );
#119 = MANIFOLD_SOLID_BREP ( 'Boss-Extrude1', #66 ) ;
#120 = DIRECTION ( 'NONE',  ( 1.000000000000000000, 1.445602896647339163E-16, -0.000000000000000000 ) ) ;
#121 = PLANE ( 'NONE',  #48 ) ;
#122 = VERTEX_POINT ( 'NONE', #171 ) ;
#123 = FILL_AREA_STYLE_COLOUR ( '', #57 ) ;
#124 = ORIENTED_EDGE ( 'NONE', *, *, #177, .F. ) ;
#125 = DIRECTION ( 'NONE',  ( -0.000000000000000000, -0.000000000000000000, -1.000000000000000000 ) ) ;
#126 = ORIENTED_EDGE ( 'NONE', *, *, #58, .F. ) ;
#127 = PLANE ( 'NONE',  #137 ) ;
#128 = LINE ( 'NONE', #144, #173 ) ;
#129 = CARTESIAN_POINT ( 'NONE',  ( -12.00000000000000178, 8.999999999999998224, 5.000000000000000000 ) ) ;
#130 = ORIENTED_EDGE ( 'NONE', *, *, #26, .F. ) ;
#131 = EDGE_CURVE ( 'NONE', #170, #22, #65, .T. ) ;
#132 = DIRECTION ( 'NONE',  ( -1.000000000000000000, -1.445602896647339163E-16, 0.000000000000000000 ) ) ;
#133 = DIRECTION ( 'NONE',  ( 1.000000000000000000, 1.445602896647339163E-16, 0.000000000000000000 ) ) ;
#134 = APPLICATION_PROTOCOL_DEFINITION ( 'draft international standard', 'automotive_design', 1998, #168 ) ;
#135 = CARTESIAN_POINT ( 'NONE',  ( -12.00000000000000178, 8.999999999999998224, 0.000000000000000000 ) ) ;
#136 = CARTESIAN_POINT ( 'NONE',  ( 12.00000000000000000, -8.999999999999998224, 5.000000000000000000 ) ) ;
#137 = AXIS2_PLACEMENT_3D ( 'NONE', #183, #105, #154 ) ;
#138 = PRESENTATION_STYLE_ASSIGNMENT (( #88 ) ) ;
#139 = CARTESIAN_POINT ( 'NONE',  ( 11.99999999999999645, 9.000000000000001776, 5.000000000000000000 ) ) ;
#140 = ORIENTED_EDGE ( 'NONE', *, *, #149, .F. ) ;
#141 = LINE ( 'NONE', #136, #31 ) ;
#142 = VECTOR ( 'NONE', #64, 1000.000000000000000 ) ;
#143 = VECTOR ( 'NONE', #125, 1000.000000000000000 ) ;
#144 = CARTESIAN_POINT ( 'NONE',  ( -12.00000000000000000, -9.000000000000001776, 5.000000000000000000 ) ) ;
#145 = VERTEX_POINT ( 'NONE', #49 ) ;
#146 = PRODUCT_DEFINITION ( 'UNKNOWN', '', #165, #3 ) ;
#147 = VECTOR ( 'NONE', #24, 1000.000000000000000 ) ;
#148 =( NAMED_UNIT ( * ) SI_UNIT ( $, .STERADIAN. ) SOLID_ANGLE_UNIT ( ) );
#149 = EDGE_CURVE ( 'NONE', #122, #41, #103, .T. ) ;
#150 = FACE_OUTER_BOUND ( 'NONE', #97, .T. ) ;
#151 = LINE ( 'NONE', #139, #60 ) ;
#152 =( LENGTH_UNIT ( ) NAMED_UNIT ( * ) SI_UNIT ( .MILLI., .METRE. ) );
#153 = EDGE_LOOP ( 'NONE', ( #27, #157, #23, #14 ) ) ;
#154 = DIRECTION ( 'NONE',  ( -9.637352644315595243E-17, 1.000000000000000000, 0.000000000000000000 ) ) ;
#155 = ORIENTED_EDGE ( 'NONE', *, *, #58, .T. ) ;
#156 = LINE ( 'NONE', #30, #36 ) ;
#157 = ORIENTED_EDGE ( 'NONE', *, *, #131, .F. ) ;
#158 =( LENGTH_UNIT ( ) NAMED_UNIT ( * ) SI_UNIT ( .MILLI., .METRE. ) );
#159 = ADVANCED_BREP_SHAPE_REPRESENTATION ( 'Repeat Brushed Dual ESC', ( #119, #108 ), #59 ) ;
#160 = MECHANICAL_DESIGN_GEOMETRIC_PRESENTATION_REPRESENTATION (  '', ( #1 ), #118 ) ;
#161 = CARTESIAN_POINT ( 'NONE',  ( 11.99999999999999645, 9.000000000000001776, 5.000000000000000000 ) ) ;
#162 = DIRECTION ( 'NONE',  ( 1.000000000000000000, 0.000000000000000000, 0.000000000000000000 ) ) ;
#163 = EDGE_CURVE ( 'NONE', #181, #41, #156, .T. ) ;
#164 = DIRECTION ( 'NONE',  ( 1.445602896647339163E-16, -1.000000000000000000, 0.000000000000000000 ) ) ;
#165 = PRODUCT_DEFINITION_FORMATION_WITH_SPECIFIED_SOURCE ( 'ANY', '', #186, .NOT_KNOWN. ) ;
#166 = FACE_OUTER_BOUND ( 'NONE', #95, .T. ) ;
#167 = SURFACE_SIDE_STYLE ('',( #91 ) ) ;
#168 = APPLICATION_CONTEXT ( 'automotive_design' ) ;
#169 = DIRECTION ( 'NONE',  ( 1.927470528863119049E-16, -1.000000000000000000, 0.000000000000000000 ) ) ;
#170 = VERTEX_POINT ( 'NONE', #129 ) ;
#171 = CARTESIAN_POINT ( 'NONE',  ( 11.99999999999999645, 9.000000000000001776, 5.000000000000000000 ) ) ;
#172 = AXIS2_PLACEMENT_3D ( 'NONE', #161, #164, #133 ) ;
#173 = VECTOR ( 'NONE', #184, 1000.000000000000000 ) ;
#174 = AXIS2_PLACEMENT_3D ( 'NONE', #7, #5, #169 ) ;
#175 = EDGE_CURVE ( 'NONE', #41, #22, #71, .T. ) ;
#176 = PLANE ( 'NONE',  #85 ) ;
#177 = EDGE_CURVE ( 'NONE', #13, #181, #96, .T. ) ;
#178 = FILL_AREA_STYLE ('',( #123 ) ) ;
#179 = ORIENTED_EDGE ( 'NONE', *, *, #32, .T. ) ;
#180 =( NAMED_UNIT ( * ) PLANE_ANGLE_UNIT ( ) SI_UNIT ( $, .RADIAN. ) );
#181 = VERTEX_POINT ( 'NONE', #82 ) ;
#182 = ORIENTED_EDGE ( 'NONE', *, *, #32, .F. ) ;
#183 = CARTESIAN_POINT ( 'NONE',  ( -12.00000000000000178, 8.999999999999998224, 5.000000000000000000 ) ) ;
#184 = DIRECTION ( 'NONE',  ( -0.000000000000000000, -0.000000000000000000, -1.000000000000000000 ) ) ;
#185 = ORIENTED_EDGE ( 'NONE', *, *, #89, .F. ) ;
#186 = PRODUCT ( 'Repeat Brushed Dual ESC', 'Repeat Brushed Dual ESC', '', ( #53 ) ) ;
#187 = SHAPE_DEFINITION_REPRESENTATION ( #25, #159 ) ;
ENDSEC;
END-ISO-10303-21;
