ISO-10303-21;
HEADER;
FILE_DESCRIPTION (( 'STEP AP214' ),
    '1' );
FILE_NAME ('Repeat 35A Weapon ESC.STEP',
    '2025-02-13T00:52:28',
    ( '' ),
    ( '' ),
    'SwSTEP 2.0',
    'SolidWorks 2024',
    '' );
FILE_SCHEMA (( 'AUTOMOTIVE_DESIGN' ));
ENDSEC;

DATA;
#1 = ORIENTED_EDGE ( 'NONE', *, *, #109, .F. ) ;
#2 = CARTESIAN_POINT ( 'NONE',  ( 6.499999999999998224, 14.50000000000000355, 0.000000000000000000 ) ) ;
#3 = ADVANCED_BREP_SHAPE_REPRESENTATION ( 'Repeat 35A Weapon ESC', ( #183, #98 ), #179 ) ;
#4 = PLANE ( 'NONE',  #144 ) ;
#5 = LINE ( 'NONE', #35, #145 ) ;
#6 = CARTESIAN_POINT ( 'NONE',  ( 6.500000000000002665, -14.49999999999999822, 0.000000000000000000 ) ) ;
#7 = EDGE_CURVE ( 'NONE', #136, #32, #154, .T. ) ;
#8 = EDGE_LOOP ( 'NONE', ( #85, #182, #68, #124 ) ) ;
#9 = CARTESIAN_POINT ( 'NONE',  ( 0.000000000000000000, 0.000000000000000000, 5.000000000000000000 ) ) ;
#10 = CARTESIAN_POINT ( 'NONE',  ( 6.499999999999998224, 14.50000000000000355, 5.000000000000000000 ) ) ;
#11 = FACE_OUTER_BOUND ( 'NONE', #133, .T. ) ;
#12 = AXIS2_PLACEMENT_3D ( 'NONE', #39, #44, #27 ) ;
#13 = STYLED_ITEM ( 'NONE', ( #160 ), #183 ) ;
#14 = CARTESIAN_POINT ( 'NONE',  ( 0.000000000000000000, 0.000000000000000000, 0.000000000000000000 ) ) ;
#15 = EDGE_LOOP ( 'NONE', ( #80, #77, #71, #1 ) ) ;
#16 = LINE ( 'NONE', #58, #76 ) ;
#17 = CARTESIAN_POINT ( 'NONE',  ( 6.500000000000002665, -14.49999999999999822, 5.000000000000000000 ) ) ;
#18 = PRODUCT_CONTEXT ( 'NONE', #108, 'mechanical' ) ;
#19 = UNCERTAINTY_MEASURE_WITH_UNIT (LENGTH_MEASURE( 1.000000000000000082E-05 ), #157, 'distance_accuracy_value', 'NONE');
#20 = AXIS2_PLACEMENT_3D ( 'NONE', #9, #79, #122 ) ;
#21 = VECTOR ( 'NONE', #46, 1000.000000000000000 ) ;
#22 = SHAPE_DEFINITION_REPRESENTATION ( #143, #3 ) ;
#23 = ADVANCED_FACE ( 'NONE', ( #57 ), #169, .F. ) ;
#24 = FACE_OUTER_BOUND ( 'NONE', #100, .T. ) ;
#25 = CARTESIAN_POINT ( 'NONE',  ( 6.499999999999998224, 14.50000000000000355, 0.000000000000000000 ) ) ;
#26 = EDGE_CURVE ( 'NONE', #65, #89, #141, .T. ) ;
#27 = DIRECTION ( 'NONE',  ( 1.495451272393799049E-16, -1.000000000000000000, 0.000000000000000000 ) ) ;
#28 = PRODUCT_DEFINITION_FORMATION_WITH_SPECIFIED_SOURCE ( 'ANY', '', #176, .NOT_KNOWN. ) ;
#29 = VERTEX_POINT ( 'NONE', #67 ) ;
#30 = LINE ( 'NONE', #142, #110 ) ;
#31 = EDGE_CURVE ( 'NONE', #87, #29, #66, .T. ) ;
#32 = VERTEX_POINT ( 'NONE', #130 ) ;
#33 = DIRECTION ( 'NONE',  ( 8.972707634362794296E-17, -1.000000000000000000, 0.000000000000000000 ) ) ;
#34 = EDGE_CURVE ( 'NONE', #32, #42, #101, .T. ) ;
#35 = CARTESIAN_POINT ( 'NONE',  ( -6.499999999999997335, -14.49999999999999822, 5.000000000000000000 ) ) ;
#36 = SURFACE_STYLE_USAGE ( .BOTH. , #107 ) ;
#37 =( GEOMETRIC_REPRESENTATION_CONTEXT ( 3 ) GLOBAL_UNCERTAINTY_ASSIGNED_CONTEXT ( ( #19 ) ) GLOBAL_UNIT_ASSIGNED_CONTEXT ( ( #157, #119, #73 ) ) REPRESENTATION_CONTEXT ( 'NONE', 'WORKASPACE' ) );
#38 = DIRECTION ( 'NONE',  ( 1.000000000000000000, 0.000000000000000000, 0.000000000000000000 ) ) ;
#39 = CARTESIAN_POINT ( 'NONE',  ( 6.499999999999998224, 14.50000000000000355, 5.000000000000000000 ) ) ;
#40 = PRODUCT_DEFINITION ( 'UNKNOWN', '', #28, #140 ) ;
#41 = LINE ( 'NONE', #55, #123 ) ;
#42 = VERTEX_POINT ( 'NONE', #63 ) ;
#43 = DIRECTION ( 'NONE',  ( -1.000000000000000000, 1.334402673828313339E-16, 0.000000000000000000 ) ) ;
#44 = DIRECTION ( 'NONE',  ( -1.000000000000000000, -1.495451272393799049E-16, 0.000000000000000000 ) ) ;
#45 = LINE ( 'NONE', #47, #21 ) ;
#46 = DIRECTION ( 'NONE',  ( 1.000000000000000000, -0.000000000000000000, -0.000000000000000000 ) ) ;
#47 = CARTESIAN_POINT ( 'NONE',  ( 6.500000000000002665, -14.49999999999999822, 0.000000000000000000 ) ) ;
#48 = ADVANCED_FACE ( 'NONE', ( #11 ), #103, .F. ) ;
#49 = LINE ( 'NONE', #94, #187 ) ;
#50 = DIRECTION ( 'NONE',  ( 0.000000000000000000, 0.000000000000000000, 1.000000000000000000 ) ) ;
#51 = ORIENTED_EDGE ( 'NONE', *, *, #34, .T. ) ;
#52 = DIRECTION ( 'NONE',  ( 8.972707634362794296E-17, -1.000000000000000000, 0.000000000000000000 ) ) ;
#53 = EDGE_LOOP ( 'NONE', ( #146, #95, #128, #148 ) ) ;
#54 = CLOSED_SHELL ( 'NONE', ( #48, #74, #23, #102, #56, #137 ) ) ;
#55 = CARTESIAN_POINT ( 'NONE',  ( -6.500000000000000000, 14.50000000000000533, 5.000000000000000000 ) ) ;
#56 = ADVANCED_FACE ( 'NONE', ( #24 ), #62, .F. ) ;
#57 = FACE_OUTER_BOUND ( 'NONE', #155, .T. ) ;
#58 = CARTESIAN_POINT ( 'NONE',  ( 6.499999999999998224, 14.50000000000000355, 5.000000000000000000 ) ) ;
#59 = PRESENTATION_LAYER_ASSIGNMENT (  '', '', ( #13 ) ) ;
#60 = APPLICATION_PROTOCOL_DEFINITION ( 'draft international standard', 'automotive_design', 1998, #78 ) ;
#61 = APPLICATION_PROTOCOL_DEFINITION ( 'draft international standard', 'automotive_design', 1998, #108 ) ;
#62 = PLANE ( 'NONE',  #20 ) ;
#63 = CARTESIAN_POINT ( 'NONE',  ( -6.499999999999997335, -14.49999999999999822, 0.000000000000000000 ) ) ;
#64 = DIRECTION ( 'NONE',  ( 0.000000000000000000, 1.000000000000000000, -0.000000000000000000 ) ) ;
#65 = VERTEX_POINT ( 'NONE', #180 ) ;
#66 = LINE ( 'NONE', #10, #181 ) ;
#67 = CARTESIAN_POINT ( 'NONE',  ( -6.500000000000000000, 14.50000000000000533, 5.000000000000000000 ) ) ;
#68 = ORIENTED_EDGE ( 'NONE', *, *, #31, .F. ) ;
#69 = LINE ( 'NONE', #90, #178 ) ;
#70 = EDGE_CURVE ( 'NONE', #185, #136, #49, .T. ) ;
#71 = ORIENTED_EDGE ( 'NONE', *, *, #70, .F. ) ;
#72 = CARTESIAN_POINT ( 'NONE',  ( 0.000000000000000000, 0.000000000000000000, 0.000000000000000000 ) ) ;
#73 =( NAMED_UNIT ( * ) SI_UNIT ( $, .STERADIAN. ) SOLID_ANGLE_UNIT ( ) );
#74 = ADVANCED_FACE ( 'NONE', ( #127 ), #168, .F. ) ;
#75 = EDGE_CURVE ( 'NONE', #29, #32, #41, .T. ) ;
#76 = VECTOR ( 'NONE', #88, 1000.000000000000000 ) ;
#77 = ORIENTED_EDGE ( 'NONE', *, *, #7, .F. ) ;
#78 = APPLICATION_CONTEXT ( 'automotive_design' ) ;
#79 = DIRECTION ( 'NONE',  ( -0.000000000000000000, 0.000000000000000000, -1.000000000000000000 ) ) ;
#80 = ORIENTED_EDGE ( 'NONE', *, *, #34, .F. ) ;
#81 = VECTOR ( 'NONE', #184, 1000.000000000000000 ) ;
#82 = MECHANICAL_DESIGN_GEOMETRIC_PRESENTATION_REPRESENTATION (  '', ( #13 ), #37 ) ;
#83 = DIRECTION ( 'NONE',  ( -1.000000000000000000, 1.334402673828313339E-16, 0.000000000000000000 ) ) ;
#84 = EDGE_CURVE ( 'NONE', #89, #87, #30, .T. ) ;
#85 = ORIENTED_EDGE ( 'NONE', *, *, #7, .T. ) ;
#86 = ORIENTED_EDGE ( 'NONE', *, *, #134, .F. ) ;
#87 = VERTEX_POINT ( 'NONE', #91 ) ;
#88 = DIRECTION ( 'NONE',  ( -0.000000000000000000, -0.000000000000000000, -1.000000000000000000 ) ) ;
#89 = VERTEX_POINT ( 'NONE', #17 ) ;
#90 = CARTESIAN_POINT ( 'NONE',  ( 6.500000000000002665, -14.49999999999999822, 5.000000000000000000 ) ) ;
#91 = CARTESIAN_POINT ( 'NONE',  ( 6.499999999999998224, 14.50000000000000355, 5.000000000000000000 ) ) ;
#92 = COLOUR_RGB ( '',0.7921568627450980005, 0.8196078431372548767, 0.9333333333333333481 ) ;
#93 = AXIS2_PLACEMENT_3D ( 'NONE', #113, #64, #50 ) ;
#94 = CARTESIAN_POINT ( 'NONE',  ( 6.499999999999998224, 14.50000000000000355, 0.000000000000000000 ) ) ;
#95 = ORIENTED_EDGE ( 'NONE', *, *, #152, .F. ) ;
#96 = ORIENTED_EDGE ( 'NONE', *, *, #84, .T. ) ;
#97 = AXIS2_PLACEMENT_3D ( 'NONE', #114, #139, #186 ) ;
#98 = AXIS2_PLACEMENT_3D ( 'NONE', #14, #153, #38 ) ;
#99 = ORIENTED_EDGE ( 'NONE', *, *, #175, .T. ) ;
#100 = EDGE_LOOP ( 'NONE', ( #99, #116, #96, #125 ) ) ;
#101 = LINE ( 'NONE', #115, #104 ) ;
#102 = ADVANCED_FACE ( 'NONE', ( #149 ), #4, .F. ) ;
#103 = PLANE ( 'NONE',  #97 ) ;
#104 = VECTOR ( 'NONE', #52, 1000.000000000000000 ) ;
#105 = FILL_AREA_STYLE_COLOUR ( '', #92 ) ;
#106 = FILL_AREA_STYLE ('',( #105 ) ) ;
#107 = SURFACE_SIDE_STYLE ('',( #174 ) ) ;
#108 = APPLICATION_CONTEXT ( 'automotive_design' ) ;
#109 = EDGE_CURVE ( 'NONE', #42, #185, #45, .T. ) ;
#110 = VECTOR ( 'NONE', #132, 1000.000000000000000 ) ;
#111 = CARTESIAN_POINT ( 'NONE',  ( 6.500000000000002665, -14.49999999999999822, 5.000000000000000000 ) ) ;
#112 = ORIENTED_EDGE ( 'NONE', *, *, #175, .F. ) ;
#113 = CARTESIAN_POINT ( 'NONE',  ( 6.500000000000002665, -14.49999999999999822, 5.000000000000000000 ) ) ;
#114 = CARTESIAN_POINT ( 'NONE',  ( -6.500000000000000000, 14.50000000000000533, 5.000000000000000000 ) ) ;
#115 = CARTESIAN_POINT ( 'NONE',  ( -6.500000000000000000, 14.50000000000000533, 0.000000000000000000 ) ) ;
#116 = ORIENTED_EDGE ( 'NONE', *, *, #26, .T. ) ;
#117 = LINE ( 'NONE', #177, #165 ) ;
#118 = DIRECTION ( 'NONE',  ( 1.000000000000000000, -1.334402673828313339E-16, 0.000000000000000000 ) ) ;
#119 =( NAMED_UNIT ( * ) PLANE_ANGLE_UNIT ( ) SI_UNIT ( $, .RADIAN. ) );
#120 =( LENGTH_UNIT ( ) NAMED_UNIT ( * ) SI_UNIT ( .MILLI., .METRE. ) );
#121 = CARTESIAN_POINT ( 'NONE',  ( 6.499999999999998224, 14.50000000000000355, 5.000000000000000000 ) ) ;
#122 = DIRECTION ( 'NONE',  ( -1.000000000000000000, 0.000000000000000000, 0.000000000000000000 ) ) ;
#123 = VECTOR ( 'NONE', #156, 1000.000000000000000 ) ;
#124 = ORIENTED_EDGE ( 'NONE', *, *, #166, .T. ) ;
#125 = ORIENTED_EDGE ( 'NONE', *, *, #31, .T. ) ;
#126 = UNCERTAINTY_MEASURE_WITH_UNIT (LENGTH_MEASURE( 1.000000000000000082E-05 ), #120, 'distance_accuracy_value', 'NONE');
#127 = FACE_OUTER_BOUND ( 'NONE', #53, .T. ) ;
#128 = ORIENTED_EDGE ( 'NONE', *, *, #26, .F. ) ;
#129 = ORIENTED_EDGE ( 'NONE', *, *, #166, .F. ) ;
#130 = CARTESIAN_POINT ( 'NONE',  ( -6.500000000000000000, 14.50000000000000533, 0.000000000000000000 ) ) ;
#131 =( NAMED_UNIT ( * ) SI_UNIT ( $, .STERADIAN. ) SOLID_ANGLE_UNIT ( ) );
#132 = DIRECTION ( 'NONE',  ( -1.495451272393799049E-16, 1.000000000000000000, -0.000000000000000000 ) ) ;
#133 = EDGE_LOOP ( 'NONE', ( #51, #86, #112, #172 ) ) ;
#134 = EDGE_CURVE ( 'NONE', #65, #42, #5, .T. ) ;
#135 = PLANE ( 'NONE',  #163 ) ;
#136 = VERTEX_POINT ( 'NONE', #2 ) ;
#137 = ADVANCED_FACE ( 'NONE', ( #147 ), #135, .T. ) ;
#138 = DIRECTION ( 'NONE',  ( -1.495451272393799049E-16, 1.000000000000000000, -0.000000000000000000 ) ) ;
#139 = DIRECTION ( 'NONE',  ( 1.000000000000000000, 8.972707634362794296E-17, -0.000000000000000000 ) ) ;
#140 = PRODUCT_DEFINITION_CONTEXT ( 'detailed design', #78, 'design' ) ;
#141 = LINE ( 'NONE', #111, #81 ) ;
#142 = CARTESIAN_POINT ( 'NONE',  ( 6.499999999999998224, 14.50000000000000355, 5.000000000000000000 ) ) ;
#143 = PRODUCT_DEFINITION_SHAPE ( 'NONE', 'NONE',  #40 ) ;
#144 = AXIS2_PLACEMENT_3D ( 'NONE', #121, #162, #118 ) ;
#145 = VECTOR ( 'NONE', #158, 1000.000000000000000 ) ;
#146 = ORIENTED_EDGE ( 'NONE', *, *, #109, .T. ) ;
#147 = FACE_OUTER_BOUND ( 'NONE', #15, .T. ) ;
#148 = ORIENTED_EDGE ( 'NONE', *, *, #134, .T. ) ;
#149 = FACE_OUTER_BOUND ( 'NONE', #8, .T. ) ;
#150 =( NAMED_UNIT ( * ) PLANE_ANGLE_UNIT ( ) SI_UNIT ( $, .RADIAN. ) );
#151 = DIRECTION ( 'NONE',  ( -0.000000000000000000, -0.000000000000000000, -1.000000000000000000 ) ) ;
#152 = EDGE_CURVE ( 'NONE', #89, #185, #69, .T. ) ;
#153 = DIRECTION ( 'NONE',  ( 0.000000000000000000, 0.000000000000000000, 1.000000000000000000 ) ) ;
#154 = LINE ( 'NONE', #25, #161 ) ;
#155 = EDGE_LOOP ( 'NONE', ( #170, #129, #171, #167 ) ) ;
#156 = DIRECTION ( 'NONE',  ( -0.000000000000000000, -0.000000000000000000, -1.000000000000000000 ) ) ;
#157 =( LENGTH_UNIT ( ) NAMED_UNIT ( * ) SI_UNIT ( .MILLI., .METRE. ) );
#158 = DIRECTION ( 'NONE',  ( -0.000000000000000000, -0.000000000000000000, -1.000000000000000000 ) ) ;
#159 = DIRECTION ( 'NONE',  ( -1.000000000000000000, 0.000000000000000000, 0.000000000000000000 ) ) ;
#160 = PRESENTATION_STYLE_ASSIGNMENT (( #36 ) ) ;
#161 = VECTOR ( 'NONE', #43, 1000.000000000000000 ) ;
#162 = DIRECTION ( 'NONE',  ( -1.334402673828313339E-16, -1.000000000000000000, 0.000000000000000000 ) ) ;
#163 = AXIS2_PLACEMENT_3D ( 'NONE', #72, #173, #159 ) ;
#164 = PRODUCT_RELATED_PRODUCT_CATEGORY ( 'part', '', ( #176 ) ) ;
#165 = VECTOR ( 'NONE', #33, 1000.000000000000000 ) ;
#166 = EDGE_CURVE ( 'NONE', #87, #136, #16, .T. ) ;
#167 = ORIENTED_EDGE ( 'NONE', *, *, #152, .T. ) ;
#168 = PLANE ( 'NONE',  #93 ) ;
#169 = PLANE ( 'NONE',  #12 ) ;
#170 = ORIENTED_EDGE ( 'NONE', *, *, #70, .T. ) ;
#171 = ORIENTED_EDGE ( 'NONE', *, *, #84, .F. ) ;
#172 = ORIENTED_EDGE ( 'NONE', *, *, #75, .T. ) ;
#173 = DIRECTION ( 'NONE',  ( -0.000000000000000000, 0.000000000000000000, -1.000000000000000000 ) ) ;
#174 = SURFACE_STYLE_FILL_AREA ( #106 ) ;
#175 = EDGE_CURVE ( 'NONE', #29, #65, #117, .T. ) ;
#176 = PRODUCT ( 'Repeat 35A Weapon ESC', 'Repeat 35A Weapon ESC', '', ( #18 ) ) ;
#177 = CARTESIAN_POINT ( 'NONE',  ( -6.500000000000000000, 14.50000000000000533, 5.000000000000000000 ) ) ;
#178 = VECTOR ( 'NONE', #151, 1000.000000000000000 ) ;
#179 =( GEOMETRIC_REPRESENTATION_CONTEXT ( 3 ) GLOBAL_UNCERTAINTY_ASSIGNED_CONTEXT ( ( #126 ) ) GLOBAL_UNIT_ASSIGNED_CONTEXT ( ( #120, #150, #131 ) ) REPRESENTATION_CONTEXT ( 'NONE', 'WORKASPACE' ) );
#180 = CARTESIAN_POINT ( 'NONE',  ( -6.499999999999997335, -14.49999999999999822, 5.000000000000000000 ) ) ;
#181 = VECTOR ( 'NONE', #83, 1000.000000000000000 ) ;
#182 = ORIENTED_EDGE ( 'NONE', *, *, #75, .F. ) ;
#183 = MANIFOLD_SOLID_BREP ( 'Boss-Extrude1', #54 ) ;
#184 = DIRECTION ( 'NONE',  ( 1.000000000000000000, -0.000000000000000000, -0.000000000000000000 ) ) ;
#185 = VERTEX_POINT ( 'NONE', #6 ) ;
#186 = DIRECTION ( 'NONE',  ( -8.972707634362794296E-17, 1.000000000000000000, 0.000000000000000000 ) ) ;
#187 = VECTOR ( 'NONE', #138, 1000.000000000000000 ) ;
ENDSEC;
END-ISO-10303-21;
